# xmcd
#
# Track frame offsets:
#	150
#	16899
#	44143
#	60606
#	77351
#	96645
#	110388
#	128528
#	146552
#	162887
#	179114
#	194060
#
# Disc length: 2812 seconds
#
# Revision: 0
# Processed by: cddbd v1.4PL0 Copyright (c) Steve Scherf et al.
# Submitted via: dBpowerAMP V4.0
#
DISCID=aa0afa0c
DTITLE=Alabama - I'm In The Mood
DYEAR=2003
DGENRE=Southern Rock
TTITLE0=I'm In The Mood
TTITLE1=The Living Years
TTITLE2=When We Make Love
TTITLE3=Touch Me When We're Dancing
TTITLE4=Feels So Right
TTITLE5=How Do You Fall In Love
TTITLE6=Fallin' Again
TTITLE7=Lady Down On Love
TTITLE8=The Closer You Get
TTITLE9=If I Had You
TTITLE10=We Can't Love Like This Anymore
TTITLE11=Then Again
EXTD=
EXTT0=
EXTT1=
EXTT2=
EXTT3=
EXTT4=
EXTT5=
EXTT6=
EXTT7=
EXTT8=
EXTT9=
EXTT10=
EXTT11=
PLAYORDER=
